<svg
        xmlns="http://www.w3.org/2000/svg"
        x="0"
        y="0"
        viewBox="0 0 143.5 20"
        xml:space="preserve"
        role="presentation"
        aria-hidden="true"
      >
        <path
          class="official_dhllogo_svg__st0"
          d="M0 18.5h17.4l-1 1.4H0v-1.4zM143.5 19.9h-21.3l1.1-1.4h20.3v1.4zM0 15.9h19.4l-1.1 1.4H0v-1.4zM0 13.3h21.4l-1.1 1.4H0v-1.4zM143.5 17.3h-19.3l1.1-1.4h18.3v1.4zM127.2 13.3h16.3v1.4h-17.4l1.1-1.4zM18.8 19.9L28 7.6h11.4c1.3 0 1.3.5.6 1.3-.6.8-1.7 2.3-2.3 3.1-.3.5-.9 1.2 1 1.2H54C52.8 15 48.6 20 41.2 20c-6-.1-22.4-.1-22.4-.1zM71.5 13.3l-5 6.7H53.4l5-6.7h13.1zM90.6 13.3l-5 6.7H72.4l5-6.7h13.2zM94.9 13.3s-1 1.3-1.4 1.9c-1.7 2.2-.2 4.8 5.2 4.8h21.2l5-6.7h-30z"
          fill="#d40511"
        ></path>
        <path
          class="official_dhllogo_svg__st0"
          d="M25.3 0l-4.6 6.1h25c1.3 0 1.3.5.6 1.3-.6.8-1.7 2.3-2.3 3.1-.3.4-.9 1.2 1 1.2h10.2s1.7-2.2 3-4.1c1.9-2.5.2-7.7-6.5-7.7-6 .1-26.4.1-26.4.1zM91.7 11.7H59.5L68.3 0h13.2l-5 6.7h5.9l5-6.7h13.2l-8.9 11.7zM118.8 0L110 11.7H96L104.8 0h14z"
          fill="#d40511"
        ></path>
      </svg>